<svg width="17" height="20" viewBox="0 0 17 20" fill="none" xmlns="http://www.w3.org/2000/svg">
<path d="M10.1696 16.25H11.0804C11.2011 16.25 11.3169 16.2006 11.4023 16.1127C11.4877 16.0248 11.5357 15.9056 11.5357 15.7812V7.34375C11.5357 7.21943 11.4877 7.1002 11.4023 7.01229C11.3169 6.92439 11.2011 6.875 11.0804 6.875H10.1696C10.0489 6.875 9.93305 6.92439 9.84766 7.01229C9.76226 7.1002 9.71429 7.21943 9.71429 7.34375V15.7812C9.71429 15.9056 9.76226 16.0248 9.84766 16.1127C9.93305 16.2006 10.0489 16.25 10.1696 16.25ZM16.3929 3.125H13.2657L11.9755 0.910156C11.8136 0.632428 11.5846 0.402614 11.3107 0.243108C11.0369 0.0836025 10.7275 -0.000154039 10.4129 2.12674e-07H6.58712C6.2726 -1.90925e-05 5.96343 0.0838016 5.68972 0.243301C5.41602 0.4028 5.18709 0.632542 5.02525 0.910156L3.73431 3.125H0.607143C0.446119 3.125 0.291689 3.19085 0.177828 3.30806C0.0639667 3.42527 0 3.58424 0 3.75L0 4.375C0 4.54076 0.0639667 4.69973 0.177828 4.81694C0.291689 4.93415 0.446119 5 0.607143 5H1.21429V18.125C1.21429 18.6223 1.40619 19.0992 1.74777 19.4508C2.08935 19.8025 2.55264 20 3.03571 20H13.9643C14.4474 20 14.9106 19.8025 15.2522 19.4508C15.5938 19.0992 15.7857 18.6223 15.7857 18.125V5H16.3929C16.5539 5 16.7083 4.93415 16.8222 4.81694C16.936 4.69973 17 4.54076 17 4.375V3.75C17 3.58424 16.936 3.42527 16.8222 3.30806C16.7083 3.19085 16.5539 3.125 16.3929 3.125ZM6.52071 1.98867C6.54101 1.9539 6.56972 1.92515 6.60404 1.90523C6.63836 1.8853 6.67712 1.87489 6.71652 1.875H10.2835C10.3228 1.87495 10.3615 1.8854 10.3957 1.90532C10.43 1.92524 10.4586 1.95396 10.4789 1.98867L11.1415 3.125H5.85855L6.52071 1.98867ZM13.9643 18.125H3.03571V5H13.9643V18.125ZM5.91964 16.25H6.83036C6.95113 16.25 7.06695 16.2006 7.15234 16.1127C7.23774 16.0248 7.28571 15.9056 7.28571 15.7812V7.34375C7.28571 7.21943 7.23774 7.1002 7.15234 7.01229C7.06695 6.92439 6.95113 6.875 6.83036 6.875H5.91964C5.79887 6.875 5.68305 6.92439 5.59766 7.01229C5.51226 7.1002 5.46429 7.21943 5.46429 7.34375V15.7812C5.46429 15.9056 5.51226 16.0248 5.59766 16.1127C5.68305 16.2006 5.79887 16.25 5.91964 16.25Z" fill="#A0979A"/>
</svg>
