<svg width="86" height="20" viewBox="0 0 86 20" fill="none" xmlns="http://www.w3.org/2000/svg">
<path d="M6.75276 10.5864C7.12343 10.1526 7.79399 10.1526 8.16466 10.5864L12.6093 15.788C13.1242 16.3906 12.696 17.3198 11.9033 17.3198H3.01412C2.22146 17.3198 1.79323 16.3906 2.30816 15.788L6.75276 10.5864Z" fill="#1D634A"/>
<path d="M6.75276 6.15089C7.12343 5.71709 7.79399 5.71709 8.16466 6.15089L12.6093 11.3524C13.1242 11.955 12.696 12.8842 11.9033 12.8842L3.01412 12.8842C2.22146 12.8842 1.79323 11.955 2.30816 11.3524L6.75276 6.15089Z" fill="#278362"/>
<path d="M6.75276 1.71583C7.12343 1.28203 7.79399 1.28203 8.16466 1.71583L12.6093 6.91736C13.1242 7.51998 12.696 8.44915 11.9033 8.44915H3.01412C2.22146 8.44915 1.79323 7.51998 2.30816 6.91736L6.75276 1.71583Z" fill="#3EA47F"/>
<path d="M25.7719 5.45722V7.10562H22.1597V8.88636H24.8626V10.4866H22.1597V13.9037H20V5.45722H25.7719Z" fill="white"/>
<path d="M29.7018 14C29.0114 14 28.3883 13.8596 27.8326 13.5789C27.2853 13.2981 26.8517 12.8971 26.5317 12.3757C26.2202 11.8543 26.0644 11.2447 26.0644 10.5468C26.0644 9.85695 26.2244 9.25134 26.5443 8.72995C26.8643 8.20053 27.3021 7.79545 27.8579 7.51471C28.4136 7.23396 29.0367 7.09358 29.7271 7.09358C30.4176 7.09358 31.0406 7.23396 31.5964 7.51471C32.1521 7.79545 32.5899 8.20053 32.9099 8.72995C33.2298 9.25134 33.3898 9.85695 33.3898 10.5468C33.3898 11.2366 33.2256 11.8463 32.8973 12.3757C32.5773 12.8971 32.1352 13.2981 31.5711 13.5789C31.0154 13.8596 30.3923 14 29.7018 14ZM29.7018 12.2193C30.1144 12.2193 30.4639 12.0749 30.7501 11.7861C31.0448 11.4973 31.1922 11.0842 31.1922 10.5468C31.1922 10.0094 31.0491 9.59626 30.7628 9.30749C30.4849 9.01872 30.1397 8.87433 29.7271 8.87433C29.3061 8.87433 28.9567 9.01872 28.6788 9.30749C28.401 9.58824 28.262 10.0013 28.262 10.5468C28.262 11.0842 28.3967 11.4973 28.6662 11.7861C28.944 12.0749 29.2893 12.2193 29.7018 12.2193Z" fill="white"/>
<path d="M36.6954 8.30882C36.948 7.93984 37.2637 7.65107 37.6426 7.44251C38.0215 7.22594 38.4425 7.11765 38.9056 7.11765V9.29545H38.312C37.7731 9.29545 37.369 9.40775 37.0995 9.63235C36.8301 9.84893 36.6954 10.234 36.6954 10.7874V13.9037H34.5356V7.18984H36.6954V8.30882Z" fill="white"/>
<path d="M46.5813 10.4385C46.5813 10.631 46.5687 10.8316 46.5435 11.0401H41.6556C41.6893 11.4572 41.8282 11.7781 42.0724 12.0027C42.325 12.2193 42.6323 12.3275 42.9944 12.3275C43.5333 12.3275 43.908 12.111 44.1185 11.6778H46.4172C46.2993 12.119 46.0846 12.516 45.773 12.869C45.4699 13.2219 45.0868 13.4987 44.6237 13.6992C44.1606 13.8997 43.6427 14 43.0702 14C42.3797 14 41.7651 13.8596 41.2262 13.5789C40.6873 13.2981 40.2663 12.8971 39.9632 12.3757C39.6601 11.8543 39.5085 11.2447 39.5085 10.5468C39.5085 9.84893 39.6559 9.2393 39.9506 8.71791C40.2537 8.19652 40.6747 7.79545 41.2136 7.51471C41.7524 7.23396 42.3713 7.09358 43.0702 7.09358C43.7522 7.09358 44.3584 7.22995 44.8889 7.50267C45.4194 7.7754 45.832 8.16444 46.1267 8.66979C46.4298 9.17513 46.5813 9.76471 46.5813 10.4385ZM44.3711 9.89706C44.3711 9.54412 44.2448 9.26337 43.9922 9.05481C43.7396 8.84626 43.4238 8.74198 43.0449 8.74198C42.6829 8.74198 42.3755 8.84225 42.1229 9.04278C41.8787 9.24332 41.7272 9.52807 41.6682 9.89706H44.3711Z" fill="white"/>
<path d="M50.5877 14C49.9731 14 49.4258 13.8997 48.9458 13.6992C48.4659 13.4987 48.087 13.2259 47.8091 12.881C47.5313 12.5281 47.3755 12.135 47.3418 11.7019H49.4763C49.5015 11.9345 49.6152 12.123 49.8173 12.2674C50.0194 12.4118 50.2678 12.484 50.5625 12.484C50.8319 12.484 51.0382 12.4358 51.1813 12.3396C51.3329 12.2353 51.4087 12.1029 51.4087 11.9425C51.4087 11.75 51.3034 11.6096 51.0929 11.5214C50.8824 11.4251 50.5414 11.3209 50.0699 11.2086C49.5647 11.0963 49.1437 10.9799 48.8069 10.8596C48.4701 10.7313 48.1796 10.5348 47.9354 10.2701C47.6912 9.99733 47.5691 9.63235 47.5691 9.17513C47.5691 8.79011 47.6786 8.44118 47.8975 8.12834C48.1249 7.80749 48.4533 7.55481 48.8827 7.37032C49.3205 7.18583 49.8384 7.09358 50.4362 7.09358C51.3203 7.09358 52.0149 7.30214 52.5201 7.71925C53.0338 8.13636 53.3285 8.68984 53.4042 9.37968H51.4087C51.375 9.14706 51.2655 8.96257 51.0803 8.8262C50.9035 8.68984 50.6677 8.62166 50.373 8.62166C50.1204 8.62166 49.9268 8.66979 49.792 8.76604C49.6573 8.85428 49.59 8.97861 49.59 9.13904C49.59 9.33155 49.6952 9.47594 49.9057 9.57219C50.1246 9.66845 50.4614 9.76471 50.9161 9.86096C51.4382 9.98931 51.8634 10.1176 52.1918 10.246C52.5201 10.3663 52.8064 10.5668 53.0506 10.8476C53.3032 11.1203 53.4337 11.4893 53.4421 11.9545C53.4421 12.3476 53.3242 12.7005 53.0885 13.0134C52.8611 13.3182 52.5286 13.5588 52.0907 13.7353C51.6613 13.9118 51.1603 14 50.5877 14Z" fill="white"/>
<path d="M58.6914 12.1591V13.9037H57.5926C56.8095 13.9037 56.1991 13.7233 55.7612 13.3623C55.3234 12.9933 55.1045 12.3957 55.1045 11.5695V8.8984H54.2456V7.18984H55.1045V5.55348H57.2642V7.18984H58.6788V8.8984H57.2642V11.5936C57.2642 11.7941 57.3147 11.9385 57.4158 12.0267C57.5168 12.115 57.6852 12.1591 57.921 12.1591H58.6914Z" fill="white"/>
<path d="M70.8684 7.33422L68.7087 13.9037H67.8246L65.9174 8.39305L64.0103 13.9037H63.1136L60.9538 7.33422H61.8506L63.5682 13.0495L65.5006 7.33422H66.3847L68.2919 13.0615L69.9969 7.33422H70.8684Z" fill="white"/>
<path d="M77.8997 10.2821C77.8997 10.5709 77.8913 10.7914 77.8744 10.9439H72.153C72.1783 11.4412 72.3046 11.8663 72.5319 12.2193C72.7593 12.5722 73.0582 12.8409 73.4287 13.0254C73.7991 13.2019 74.2033 13.2901 74.6411 13.2901C75.2137 13.2901 75.6936 13.1578 76.081 12.893C76.4767 12.6283 76.7377 12.2714 76.864 11.8222H77.7987C77.6303 12.4639 77.2682 12.9893 76.7125 13.3984C76.1652 13.7995 75.4747 14 74.6411 14C73.9928 14 73.4118 13.8636 72.8982 13.5909C72.3846 13.3102 71.9804 12.9171 71.6857 12.4118C71.3994 11.8984 71.2563 11.3008 71.2563 10.619C71.2563 9.93717 71.3994 9.33957 71.6857 8.8262C71.972 8.31283 72.3719 7.91979 72.8856 7.64706C73.3992 7.37433 73.9844 7.23797 74.6411 7.23797C75.2979 7.23797 75.8705 7.37433 76.3588 7.64706C76.8556 7.91979 77.2345 8.28877 77.4955 8.75401C77.765 9.21123 77.8997 9.72059 77.8997 10.2821ZM77.003 10.258C77.0114 9.76872 76.9061 9.3516 76.6872 9.00668C76.4767 8.66176 76.1862 8.40107 75.8157 8.2246C75.4453 8.04813 75.0411 7.95989 74.6033 7.95989C73.9465 7.95989 73.3866 8.16043 72.9235 8.5615C72.4604 8.96257 72.2035 9.52807 72.153 10.258H77.003Z" fill="white"/>
<path d="M79.9755 8.79011C80.2028 8.33289 80.5522 7.95989 81.0238 7.67112C81.5037 7.38235 82.0678 7.23797 82.7162 7.23797C83.3477 7.23797 83.9118 7.37834 84.4086 7.65909C84.9054 7.93182 85.2927 8.32487 85.5706 8.83823C85.8569 9.34358 86 9.93316 86 10.607C86 11.2807 85.8569 11.8743 85.5706 12.3877C85.2927 12.9011 84.9012 13.2981 84.396 13.5789C83.8992 13.8596 83.3393 14 82.7162 14C82.0594 14 81.4911 13.8596 81.0111 13.5789C80.5396 13.2901 80.1944 12.9171 79.9755 12.4599V13.9037H79.104V5H79.9755V8.79011ZM85.1033 10.607C85.1033 10.0615 84.9896 9.59225 84.7623 9.1992C84.5433 8.79813 84.2402 8.49332 83.8529 8.28476C83.4656 8.0762 83.0277 7.97192 82.5394 7.97192C82.0678 7.97192 81.6342 8.08021 81.2385 8.29679C80.8511 8.51337 80.5438 8.82219 80.3165 9.22326C80.0891 9.62433 79.9755 10.0896 79.9755 10.619C79.9755 11.1484 80.0891 11.6136 80.3165 12.0147C80.5438 12.4158 80.8511 12.7246 81.2385 12.9412C81.6342 13.1578 82.0678 13.266 82.5394 13.266C83.0277 13.266 83.4656 13.1618 83.8529 12.9532C84.2402 12.7366 84.5433 12.4278 84.7623 12.0267C84.9896 11.6176 85.1033 11.1444 85.1033 10.607Z" fill="white"/>
</svg>
