<svg width="24" height="24" viewBox="0 0 24 24" fill="none" xmlns="http://www.w3.org/2000/svg">
<g clip-path="url(#clip0_1548_3127)">
<path d="M7.03154 0C10.3419 0 13.6522 0 16.9626 0C16.9978 0.0117417 17.0389 0.0293543 17.0741 0.0293543C17.8195 0.0821919 18.5414 0.240705 19.234 0.522506C20.9655 1.22114 22.2744 2.39531 23.1489 4.05089C23.7711 5.23093 24.0058 6.49903 24 7.81997C23.9882 10.6086 24 13.3973 23.9941 16.1859C23.9941 16.6791 23.9706 17.1722 23.8943 17.6536C23.6067 19.5499 22.697 21.1057 21.2237 22.3151C19.8033 23.4775 18.154 24.0059 16.3228 24C13.4468 23.9942 10.5767 23.9942 7.70065 24C6.16287 24.0059 4.7366 23.6419 3.43947 22.7965C1.85473 21.7574 0.786499 20.3308 0.2876 18.4991C0.146735 18 0.0939104 17.4834 0 16.9668C0 13.6556 0 10.3444 0 7.02741C0.0117388 6.9687 0.029347 6.90999 0.0352164 6.85128C0.117388 5.88846 0.369772 4.96674 0.821716 4.1096C1.83712 2.16634 3.39838 0.868886 5.51723 0.281801C6.01026 0.146771 6.52677 0.0939336 7.03154 0ZM12.0088 2.24854C10.5473 2.24854 9.08583 2.24267 7.63022 2.25441C7.22523 2.26028 6.81437 2.28376 6.42112 2.36595C3.93837 2.91194 2.25972 5.00196 2.25385 7.55578C2.24798 10.5147 2.23624 13.4795 2.26559 16.4384C2.27146 17.0079 2.35363 17.6008 2.53558 18.1351C3.28686 20.3777 5.2355 21.7456 7.60674 21.7456C10.5356 21.7456 13.4644 21.7515 16.3932 21.7398C16.7865 21.7398 17.1915 21.7104 17.5788 21.6282C20.0616 21.0764 21.7402 18.9922 21.7461 16.4384C21.752 13.4795 21.7637 10.5147 21.7344 7.55578C21.7285 6.98631 21.6463 6.39336 21.4644 5.85911C20.7131 3.61644 18.7645 2.25441 16.3932 2.24854C14.9317 2.24854 13.4703 2.24854 12.0088 2.24854Z" fill="#EA690C"/>
<path d="M17.9954 12.0294C17.966 15.3522 15.2426 18.0411 11.9557 18C8.63952 17.9589 5.96894 15.2583 5.99829 11.9706C6.02763 8.64775 8.75104 5.95891 12.0379 6.00001C15.3541 6.04697 18.0247 8.74756 17.9954 12.0294ZM11.9851 8.24854C9.93079 8.25441 8.24627 9.93934 8.24627 12C8.24627 14.0665 9.94253 15.7573 12.0086 15.7515C14.0628 15.7456 15.7474 14.0548 15.7474 12C15.7474 9.93347 14.0511 8.24267 11.9851 8.24854Z" fill="#EA690C"/>
<path d="M18.13 7.25636C17.4433 7.25049 16.8916 6.69863 16.8916 6.00587C16.8916 5.30724 17.4668 4.72603 18.1594 4.73777C18.8402 4.74951 19.4037 5.31311 19.4096 5.99413C19.4096 6.69276 18.8344 7.2681 18.13 7.25636Z" fill="#EA690C"/>
</g>
<defs>
<clipPath id="clip0_1548_3127">
<rect width="24" height="24" fill="white"/>
</clipPath>
</defs>
</svg>
