<svg width="18" height="18" viewBox="0 0 18 18" fill="none" xmlns="http://www.w3.org/2000/svg">
<g clip-path="url(#clip0_1485_976)">
<path d="M5.27365 0C7.75641 0 10.2392 0 12.7219 0C12.7483 0.00880628 12.7791 0.0220157 12.8056 0.0220157C13.3646 0.0616439 13.9061 0.180529 14.4255 0.391879C15.7241 0.915853 16.7058 1.79648 17.3617 3.03817C17.8283 3.9232 18.0044 4.87427 18 5.86498C17.9912 7.95647 18 10.048 17.9956 12.1395C17.9956 12.5093 17.978 12.8792 17.9207 13.2402C17.705 14.6625 17.0227 15.8293 15.9178 16.7363C14.8525 17.6082 13.6155 18.0044 12.2421 18C10.0851 17.9956 7.93249 17.9956 5.77549 18C4.62215 18.0044 3.55245 17.7314 2.5796 17.0974C1.39105 16.318 0.589874 15.2481 0.2157 13.8743C0.110051 13.5 0.0704328 13.1125 0 12.7251C0 10.2417 0 7.75833 0 5.27056C0.0088041 5.22652 0.0220102 5.18249 0.0264123 5.13846C0.088041 4.41635 0.277329 3.72505 0.616287 3.0822C1.37784 1.62476 2.54879 0.651664 4.13792 0.211351C4.5077 0.110078 4.89508 0.0704502 5.27365 0ZM9.00659 1.6864C7.91048 1.6864 6.81437 1.682 5.72266 1.69081C5.41892 1.69521 5.11078 1.71282 4.81584 1.77446C2.95377 2.18396 1.69479 3.75147 1.69039 5.66684C1.68598 7.88602 1.67718 10.1096 1.69919 12.3288C1.70359 12.7559 1.76522 13.2006 1.90168 13.6013C2.46515 15.2833 3.92663 16.3092 5.70505 16.3092C7.90168 16.3092 10.0983 16.3136 12.2949 16.3048C12.5899 16.3048 12.8936 16.2828 13.1841 16.2212C15.0462 15.8073 16.3052 14.2442 16.3096 12.3288C16.314 10.1096 16.3228 7.88602 16.3008 5.66684C16.2964 5.23973 16.2348 4.79502 16.0983 4.39433C15.5348 2.71233 14.0733 1.69081 12.2949 1.6864C11.1988 1.6864 10.1027 1.6864 9.00659 1.6864Z" fill="#EA690C"/>
<path d="M13.496 9.02201C13.474 11.5142 11.4315 13.5308 8.96631 13.5C6.47915 13.4692 4.47622 11.4437 4.49823 8.97798C4.52024 6.48581 6.56279 4.46918 9.02794 4.5C11.5151 4.53522 13.518 6.56066 13.496 9.02201ZM8.98832 6.18639C7.4476 6.1908 6.18421 7.45449 6.18421 8.99999C6.18421 10.5499 7.45641 11.818 9.00593 11.8136C10.5466 11.8092 11.81 10.5411 11.81 8.99999C11.81 7.45009 10.5378 6.18199 8.98832 6.18639Z" fill="#EA690C"/>
<path d="M13.5988 5.44226C13.0837 5.43786 12.6699 5.02397 12.6699 4.5044C12.6699 3.98043 13.1013 3.54452 13.6208 3.55332C14.1314 3.56213 14.554 3.98483 14.5584 4.49559C14.5584 5.01956 14.127 5.45107 13.5988 5.44226Z" fill="#EA690C"/>
</g>
<defs>
<clipPath id="clip0_1485_976">
<rect width="18" height="18" fill="white"/>
</clipPath>
</defs>
</svg>
