<svg width="34" height="34" viewBox="0 0 34 34" fill="none" xmlns="http://www.w3.org/2000/svg">
<g opacity="0.3">
<path d="M29.7507 23.2617C29.7503 23.2617 29.75 23.262 29.75 23.2624V28.271C29.7502 28.6297 29.6143 28.975 29.3698 29.2374C29.1252 29.4998 28.7903 29.6597 28.4325 29.6848C27.8134 29.7273 27.3077 29.75 26.9167 29.75C14.3976 29.75 4.25 19.6024 4.25 7.08333C4.25 6.69233 4.27125 6.18658 4.31517 5.5675C4.34027 5.20971 4.50016 4.87477 4.76256 4.63025C5.02495 4.38573 5.37033 4.24984 5.729 4.25H10.7383C10.9141 4.24982 11.0836 4.31497 11.2139 4.43278C11.3443 4.55059 11.4263 4.71266 11.4438 4.8875C11.4764 5.21333 11.5062 5.47258 11.5345 5.6695C11.816 7.63431 12.393 9.54526 13.2458 11.3376C13.3804 11.6209 13.2926 11.9595 13.0376 12.1408V12.1408C11.2528 13.4162 10.5476 15.8049 11.8019 17.6045C13.0512 19.397 14.6091 20.9543 16.402 22.2031C18.1992 23.4548 20.584 22.7511 21.8578 20.9695V20.9695C21.9469 20.8448 22.077 20.7554 22.2254 20.7168C22.3737 20.6783 22.5309 20.693 22.6695 20.7584C24.4616 21.6096 26.3721 22.1852 28.3362 22.4655C28.5331 22.4938 28.7923 22.525 29.1153 22.5562C29.2899 22.5741 29.4516 22.6561 29.5692 22.7865C29.6865 22.9167 29.7515 23.0857 29.7514 23.261C29.7514 23.2613 29.7511 23.2617 29.7507 23.2617V23.2617Z" fill="#A0979A"/>
</g>
</svg>
