<svg width="23" height="23" viewBox="0 0 23 23" fill="none" xmlns="http://www.w3.org/2000/svg">
<path d="M20.1255 15.7358C20.1252 15.7358 20.125 15.736 20.125 15.7363V19.1245C20.1251 19.3671 20.0332 19.6008 19.8678 19.7783C19.7024 19.9558 19.4758 20.0639 19.2337 20.0809C18.815 20.1097 18.4728 20.125 18.2083 20.125C9.73954 20.125 2.875 13.2605 2.875 4.79167C2.875 4.52717 2.88938 4.18504 2.91908 3.76625C2.93607 3.52422 3.04422 3.29764 3.22173 3.13223C3.39923 2.96681 3.63287 2.87489 3.8755 2.875H7.26417C7.38304 2.87488 7.49771 2.91895 7.58591 2.99864C7.6741 3.07834 7.72953 3.18798 7.74142 3.30625C7.76346 3.52667 7.78358 3.70204 7.80275 3.83525C7.9932 5.16438 8.3835 6.45709 8.96042 7.66954C9.05146 7.86121 8.99204 8.09025 8.81954 8.21292C7.61218 9.07564 7.13511 10.6916 7.98363 11.9089C8.82879 13.1215 9.88261 14.175 11.0955 15.0198C12.3112 15.8665 13.9245 15.3904 14.7861 14.1853C14.8464 14.1009 14.9345 14.0404 15.0348 14.0143C15.1352 13.9882 15.2415 13.9982 15.3353 14.0425C16.5476 14.6183 17.8399 15.0076 19.1686 15.1972C19.3018 15.2164 19.4772 15.2375 19.6957 15.2586C19.8138 15.2707 19.9232 15.3262 20.0027 15.4144C20.0821 15.5024 20.126 15.6168 20.126 15.7354C20.126 15.7356 20.1257 15.7358 20.1255 15.7358Z" fill="url(#paint0_linear_1485_990)"/>
<defs>
<linearGradient id="paint0_linear_1485_990" x1="20.126" y1="2.875" x2="0.747194" y2="5.74184" gradientUnits="userSpaceOnUse">
<stop stop-color="#EA690C"/>
<stop offset="1" stop-color="#EA910C"/>
</linearGradient>
</defs>
</svg>
