<svg width="105" height="105" viewBox="0 0 105 105" fill="none" xmlns="http://www.w3.org/2000/svg">
<g opacity="0.2" filter="url(#filter0_d_1485_988)">
<circle cx="52.5" cy="48.5" r="22.5" fill="url(#paint0_linear_1485_988)"/>
</g>
<path d="M61.1255 52.7358C61.1252 52.7358 61.125 52.736 61.125 52.7363V56.1245C61.1251 56.3671 61.0332 56.6008 60.8678 56.7783C60.7024 56.9558 60.4758 57.0639 60.2337 57.0809C59.815 57.1097 59.4728 57.125 59.2083 57.125C50.7395 57.125 43.875 50.2605 43.875 41.7917C43.875 41.5272 43.8894 41.185 43.9191 40.7663C43.9361 40.5242 44.0442 40.2976 44.2217 40.1322C44.3992 39.9668 44.6329 39.8749 44.8755 39.875H48.2642C48.383 39.8749 48.4977 39.9189 48.5859 39.9986C48.6741 40.0783 48.7295 40.188 48.7414 40.3063C48.7635 40.5267 48.7836 40.702 48.8028 40.8353C48.9932 42.1644 49.3835 43.4571 49.9604 44.6695C50.0515 44.8612 49.992 45.0903 49.8195 45.2129C48.6122 46.0756 48.1351 47.6916 48.9836 48.9089C49.8288 50.1215 50.8826 51.175 52.0955 52.0198C53.3112 52.8665 54.9245 52.3904 55.7861 51.1853C55.8464 51.1009 55.9345 51.0404 56.0348 51.0143C56.1352 50.9882 56.2415 50.9982 56.3353 51.0425C57.5476 51.6183 58.8399 52.0076 60.1686 52.1972C60.3018 52.2164 60.4772 52.2375 60.6957 52.2586C60.8138 52.2707 60.9232 52.3262 61.0027 52.4144C61.0821 52.5024 61.126 52.6168 61.126 52.7354C61.126 52.7356 61.1257 52.7358 61.1255 52.7358Z" fill="url(#paint1_linear_1485_988)"/>
<defs>
<filter id="filter0_d_1485_988" x="0" y="0" width="105" height="105" filterUnits="userSpaceOnUse" color-interpolation-filters="sRGB">
<feFlood flood-opacity="0" result="BackgroundImageFix"/>
<feColorMatrix in="SourceAlpha" type="matrix" values="0 0 0 0 0 0 0 0 0 0 0 0 0 0 0 0 0 0 127 0" result="hardAlpha"/>
<feOffset dy="4"/>
<feGaussianBlur stdDeviation="15"/>
<feComposite in2="hardAlpha" operator="out"/>
<feColorMatrix type="matrix" values="0 0 0 0 0 0 0 0 0 0 0 0 0 0 0 0 0 0 0.05 0"/>
<feBlend mode="normal" in2="BackgroundImageFix" result="effect1_dropShadow_1485_988"/>
<feBlend mode="normal" in="SourceGraphic" in2="effect1_dropShadow_1485_988" result="shape"/>
</filter>
<linearGradient id="paint0_linear_1485_988" x1="75" y1="26" x2="24.4494" y2="33.4779" gradientUnits="userSpaceOnUse">
<stop stop-color="#F16500"/>
<stop offset="1" stop-color="#FF9900"/>
</linearGradient>
<linearGradient id="paint1_linear_1485_988" x1="61.126" y1="39.875" x2="41.7472" y2="42.7418" gradientUnits="userSpaceOnUse">
<stop stop-color="#EA690C"/>
<stop offset="1" stop-color="#EA910C"/>
</linearGradient>
</defs>
</svg>
