<svg width="34" height="34" viewBox="0 0 34 34" fill="none" xmlns="http://www.w3.org/2000/svg">
<g opacity="0.3">
<path d="M21.7682 4.8705L26.3171 12.75H31.1663V15.5833H29.5131L28.4407 28.4509C28.4112 28.8049 28.2498 29.1349 27.9884 29.3755C27.7271 29.6162 27.3849 29.7498 27.0297 29.75H6.96967C6.61444 29.7498 6.27224 29.6162 6.0109 29.3755C5.74957 29.1349 5.58816 28.8049 5.55867 28.4509L4.48484 15.5833H2.83301V12.75H7.68084L12.2312 4.8705L14.6848 6.28717L10.9533 12.75H23.0446L19.3145 6.28717L21.7682 4.8705ZM18.4163 18.4167H15.583V24.0833H18.4163V18.4167ZM12.7497 18.4167H9.91634V24.0833H12.7497V18.4167ZM24.083 18.4167H21.2497V24.0833H24.083V18.4167Z" fill="#A0979A"/>
</g>
</svg>
