<svg width="27" height="18" viewBox="0 0 27 18" fill="none" xmlns="http://www.w3.org/2000/svg">
<path d="M0 1.54412C0.145658 0.955882 0.436975 0.514706 0.946779 0.220588C1.2381 0.0735294 1.52941 0 1.89356 0C7.06443 0 12.1625 0 17.3333 0C18.0616 0 18.6443 0.294118 19.0084 0.955882C19.8824 2.42647 20.7563 4.82353 21.7031 6.29412C21.7759 6.44118 21.9216 6.51471 22.0672 6.51471C24.0336 6.73529 25.8543 8.5 26 10.4853C26.0728 12.2206 26.0728 12.9559 26.0728 13.6912C26.0728 14.6471 25.2717 15.3824 24.3249 15.3824C24.0336 15.3824 23.888 15.4559 23.7423 15.75C22.6499 17.5147 20.1008 17.4412 19.0812 15.6029C19.0084 15.4559 18.8627 15.3824 18.7171 15.3824C15.0028 15.3824 11.2885 15.3824 7.57423 15.3824C7.42857 15.3824 7.28291 15.4559 7.21008 15.6029C6.70028 16.4853 5.89916 17 4.80672 17C3.78711 17 2.98599 16.4853 2.40336 15.6029C2.33053 15.3824 2.18487 15.3824 1.96639 15.3824C1.16527 15.3824 0.582633 15.0882 0.218487 14.3529C0.145658 14.2059 0.0728291 14.0588 0.0728291 13.9118C0 10.4559 0 5 0 1.54412ZM15.1485 7.69118C16.8964 7.69118 18.6443 7.69118 20.3922 7.69118C20.3922 7.61765 20.3922 7.61765 20.3922 7.54412C19.4454 6 18.4986 3.45588 17.479 1.91176C17.4062 1.83824 17.3333 1.76471 17.1877 1.76471C16.6779 1.76471 16.1681 1.76471 15.5854 1.76471C15.4398 1.76471 15.2213 1.76471 15.0756 1.76471C15.1485 3.45588 15.1485 6.07353 15.1485 7.69118ZM4.73389 13.1029C4.07843 13.1029 3.56863 13.6176 3.56863 14.2059C3.56863 14.8676 4.07843 15.3824 4.73389 15.3824C5.31653 15.3824 5.89916 14.8676 5.89916 14.2059C5.82633 13.6176 5.31653 13.1029 4.73389 13.1029ZM21.3389 13.1029C20.6835 13.1029 20.1737 13.6176 20.1737 14.2059C20.1737 14.8676 20.6835 15.3824 21.3389 15.3824C21.9216 15.3824 22.5042 14.8676 22.5042 14.2059C22.5042 13.6176 21.9944 13.1029 21.3389 13.1029Z" fill="#EA690C"/>
</svg>
