<svg width="32" height="32" viewBox="0 0 32 32" fill="none" xmlns="http://www.w3.org/2000/svg">
<path d="M20.4874 4.58398L24.7687 12H29.3327V14.6667H27.7767L26.7673 26.7773C26.7396 27.1105 26.5877 27.4211 26.3417 27.6476C26.0958 27.874 25.7737 27.9998 25.4394 28H6.55935C6.22501 27.9998 5.90294 27.874 5.65698 27.6476C5.41101 27.4211 5.2591 27.1105 5.23135 26.7773L4.22068 14.6667H2.66602V12H7.22868L11.5113 4.58398L13.8207 5.91732L10.3087 12H21.6887L18.178 5.91732L20.4874 4.58398ZM17.3327 17.3333H14.666V22.6667H17.3327V17.3333ZM11.9993 17.3333H9.33268V22.6667H11.9993V17.3333ZM22.666 17.3333H19.9993V22.6667H22.666V17.3333Z" fill="white"/>
</svg>
